<mxfile host="app.diagrams.net" agent="Mozilla/5.0 (Windows NT 10.0; Win64; x64) AppleWebKit/537.36 (KHTML, like Gecko) Chrome/135.0.0.0 Safari/537.36" version="26.2.10">
  <diagram id="C5RBs43oDa-KdzZeNtuy" name="Page-1">
    <mxGraphModel dx="1044" dy="562" grid="1" gridSize="10" guides="1" tooltips="1" connect="1" arrows="1" fold="1" page="1" pageScale="1" pageWidth="827" pageHeight="1169" math="0" shadow="0">
      <root>
        <mxCell id="WIyWlLk6GJQsqaUBKTNV-0" />
        <mxCell id="WIyWlLk6GJQsqaUBKTNV-1" parent="WIyWlLk6GJQsqaUBKTNV-0" />
        <mxCell id="IJdeUOe-4886uKfbgkYT-0" value="" style="edgeStyle=orthogonalEdgeStyle;rounded=0;orthogonalLoop=1;jettySize=auto;html=1;" edge="1" parent="WIyWlLk6GJQsqaUBKTNV-1" source="IJdeUOe-4886uKfbgkYT-1" target="IJdeUOe-4886uKfbgkYT-4">
          <mxGeometry relative="1" as="geometry" />
        </mxCell>
        <mxCell id="IJdeUOe-4886uKfbgkYT-1" value="INICIO" style="strokeWidth=2;html=1;shape=mxgraph.flowchart.start_1;whiteSpace=wrap;fillColor=#d5e8d4;strokeColor=#82b366;" vertex="1" parent="WIyWlLk6GJQsqaUBKTNV-1">
          <mxGeometry x="360" y="100" width="100" height="60" as="geometry" />
        </mxCell>
        <mxCell id="IJdeUOe-4886uKfbgkYT-6" value="" style="edgeStyle=orthogonalEdgeStyle;rounded=0;orthogonalLoop=1;jettySize=auto;html=1;" edge="1" parent="WIyWlLk6GJQsqaUBKTNV-1" source="IJdeUOe-4886uKfbgkYT-2" target="IJdeUOe-4886uKfbgkYT-5">
          <mxGeometry relative="1" as="geometry" />
        </mxCell>
        <mxCell id="IJdeUOe-4886uKfbgkYT-2" value="NUM1" style="html=1;strokeWidth=2;shape=manualInput;whiteSpace=wrap;rounded=1;size=26;arcSize=11;fillColor=#dae8fc;strokeColor=#6c8ebf;" vertex="1" parent="WIyWlLk6GJQsqaUBKTNV-1">
          <mxGeometry x="360" y="320" width="100" height="60" as="geometry" />
        </mxCell>
        <mxCell id="IJdeUOe-4886uKfbgkYT-3" value="" style="edgeStyle=orthogonalEdgeStyle;rounded=0;orthogonalLoop=1;jettySize=auto;html=1;" edge="1" parent="WIyWlLk6GJQsqaUBKTNV-1" source="IJdeUOe-4886uKfbgkYT-20" target="IJdeUOe-4886uKfbgkYT-2">
          <mxGeometry relative="1" as="geometry" />
        </mxCell>
        <mxCell id="IJdeUOe-4886uKfbgkYT-4" value="SOMA = 0" style="whiteSpace=wrap;html=1;fillColor=#f5f5f5;strokeColor=#666666;strokeWidth=2;fontColor=#333333;" vertex="1" parent="WIyWlLk6GJQsqaUBKTNV-1">
          <mxGeometry x="350" y="200" width="120" height="40" as="geometry" />
        </mxCell>
        <mxCell id="IJdeUOe-4886uKfbgkYT-8" value="" style="edgeStyle=orthogonalEdgeStyle;rounded=0;orthogonalLoop=1;jettySize=auto;html=1;" edge="1" parent="WIyWlLk6GJQsqaUBKTNV-1" source="IJdeUOe-4886uKfbgkYT-5" target="IJdeUOe-4886uKfbgkYT-7">
          <mxGeometry relative="1" as="geometry" />
        </mxCell>
        <mxCell id="IJdeUOe-4886uKfbgkYT-5" value="NUM2" style="html=1;strokeWidth=2;shape=manualInput;whiteSpace=wrap;rounded=1;size=26;arcSize=11;fillColor=#dae8fc;strokeColor=#6c8ebf;" vertex="1" parent="WIyWlLk6GJQsqaUBKTNV-1">
          <mxGeometry x="360" y="410" width="100" height="60" as="geometry" />
        </mxCell>
        <mxCell id="IJdeUOe-4886uKfbgkYT-10" style="edgeStyle=orthogonalEdgeStyle;rounded=0;orthogonalLoop=1;jettySize=auto;html=1;exitX=0.5;exitY=1;exitDx=0;exitDy=0;entryX=0.5;entryY=0;entryDx=0;entryDy=0;" edge="1" parent="WIyWlLk6GJQsqaUBKTNV-1" source="IJdeUOe-4886uKfbgkYT-7" target="IJdeUOe-4886uKfbgkYT-9">
          <mxGeometry relative="1" as="geometry" />
        </mxCell>
        <mxCell id="IJdeUOe-4886uKfbgkYT-11" value="S" style="edgeLabel;html=1;align=center;verticalAlign=middle;resizable=0;points=[];" vertex="1" connectable="0" parent="IJdeUOe-4886uKfbgkYT-10">
          <mxGeometry x="-0.616" y="-1" relative="1" as="geometry">
            <mxPoint as="offset" />
          </mxGeometry>
        </mxCell>
        <mxCell id="IJdeUOe-4886uKfbgkYT-7" value="NUM1 &amp;lt; NUM2" style="rhombus;whiteSpace=wrap;html=1;fillColor=#ffe6cc;strokeColor=#d79b00;" vertex="1" parent="WIyWlLk6GJQsqaUBKTNV-1">
          <mxGeometry x="370" y="505" width="80" height="80" as="geometry" />
        </mxCell>
        <mxCell id="IJdeUOe-4886uKfbgkYT-13" value="" style="edgeStyle=orthogonalEdgeStyle;rounded=0;orthogonalLoop=1;jettySize=auto;html=1;" edge="1" parent="WIyWlLk6GJQsqaUBKTNV-1" source="IJdeUOe-4886uKfbgkYT-9" target="IJdeUOe-4886uKfbgkYT-12">
          <mxGeometry relative="1" as="geometry" />
        </mxCell>
        <mxCell id="IJdeUOe-4886uKfbgkYT-9" value="I = NUM1, I &amp;lt;= NUM2, I++" style="shape=hexagon;perimeter=hexagonPerimeter2;whiteSpace=wrap;html=1;fixedSize=1;fillColor=#fff2cc;strokeColor=#d6b656;" vertex="1" parent="WIyWlLk6GJQsqaUBKTNV-1">
          <mxGeometry x="330" y="620" width="160" height="40" as="geometry" />
        </mxCell>
        <mxCell id="IJdeUOe-4886uKfbgkYT-14" style="edgeStyle=orthogonalEdgeStyle;rounded=0;orthogonalLoop=1;jettySize=auto;html=1;exitX=0;exitY=0.5;exitDx=0;exitDy=0;entryX=0;entryY=0.5;entryDx=0;entryDy=0;" edge="1" parent="WIyWlLk6GJQsqaUBKTNV-1" source="IJdeUOe-4886uKfbgkYT-12" target="IJdeUOe-4886uKfbgkYT-9">
          <mxGeometry relative="1" as="geometry" />
        </mxCell>
        <mxCell id="IJdeUOe-4886uKfbgkYT-12" value="SOMA = SOMA + I" style="whiteSpace=wrap;html=1;fillColor=#f5f5f5;strokeColor=#666666;strokeWidth=2;fontColor=#333333;" vertex="1" parent="WIyWlLk6GJQsqaUBKTNV-1">
          <mxGeometry x="335" y="710" width="150" height="40" as="geometry" />
        </mxCell>
        <mxCell id="IJdeUOe-4886uKfbgkYT-18" value="" style="edgeStyle=orthogonalEdgeStyle;rounded=0;orthogonalLoop=1;jettySize=auto;html=1;" edge="1" parent="WIyWlLk6GJQsqaUBKTNV-1" source="IJdeUOe-4886uKfbgkYT-15" target="IJdeUOe-4886uKfbgkYT-17">
          <mxGeometry relative="1" as="geometry" />
        </mxCell>
        <mxCell id="IJdeUOe-4886uKfbgkYT-15" value="" style="verticalLabelPosition=bottom;verticalAlign=top;html=1;shape=mxgraph.flowchart.on-page_reference;fillColor=#f5f5f5;gradientColor=#b3b3b3;strokeColor=#666666;" vertex="1" parent="WIyWlLk6GJQsqaUBKTNV-1">
          <mxGeometry x="395" y="780" width="30" height="30" as="geometry" />
        </mxCell>
        <mxCell id="IJdeUOe-4886uKfbgkYT-16" style="edgeStyle=orthogonalEdgeStyle;rounded=0;orthogonalLoop=1;jettySize=auto;html=1;exitX=1;exitY=0.5;exitDx=0;exitDy=0;entryX=1;entryY=0.5;entryDx=0;entryDy=0;entryPerimeter=0;" edge="1" parent="WIyWlLk6GJQsqaUBKTNV-1" source="IJdeUOe-4886uKfbgkYT-9" target="IJdeUOe-4886uKfbgkYT-15">
          <mxGeometry relative="1" as="geometry" />
        </mxCell>
        <mxCell id="IJdeUOe-4886uKfbgkYT-17" value="FIM" style="strokeWidth=2;html=1;shape=mxgraph.flowchart.start_1;whiteSpace=wrap;fillColor=#d5e8d4;strokeColor=#82b366;" vertex="1" parent="WIyWlLk6GJQsqaUBKTNV-1">
          <mxGeometry x="360" y="850" width="100" height="60" as="geometry" />
        </mxCell>
        <mxCell id="IJdeUOe-4886uKfbgkYT-21" value="" style="edgeStyle=orthogonalEdgeStyle;rounded=0;orthogonalLoop=1;jettySize=auto;html=1;" edge="1" parent="WIyWlLk6GJQsqaUBKTNV-1" source="IJdeUOe-4886uKfbgkYT-4" target="IJdeUOe-4886uKfbgkYT-20">
          <mxGeometry relative="1" as="geometry">
            <mxPoint x="410" y="240" as="sourcePoint" />
            <mxPoint x="410" y="320" as="targetPoint" />
          </mxGeometry>
        </mxCell>
        <mxCell id="IJdeUOe-4886uKfbgkYT-20" value="" style="verticalLabelPosition=bottom;verticalAlign=top;html=1;shape=mxgraph.flowchart.on-page_reference;fillColor=#f5f5f5;gradientColor=#b3b3b3;strokeColor=#666666;" vertex="1" parent="WIyWlLk6GJQsqaUBKTNV-1">
          <mxGeometry x="395" y="270" width="30" height="30" as="geometry" />
        </mxCell>
        <mxCell id="IJdeUOe-4886uKfbgkYT-22" style="edgeStyle=orthogonalEdgeStyle;rounded=0;orthogonalLoop=1;jettySize=auto;html=1;exitX=1;exitY=0.5;exitDx=0;exitDy=0;entryX=1;entryY=0.5;entryDx=0;entryDy=0;entryPerimeter=0;" edge="1" parent="WIyWlLk6GJQsqaUBKTNV-1" source="IJdeUOe-4886uKfbgkYT-7" target="IJdeUOe-4886uKfbgkYT-20">
          <mxGeometry relative="1" as="geometry">
            <Array as="points">
              <mxPoint x="490" y="545" />
              <mxPoint x="490" y="285" />
            </Array>
          </mxGeometry>
        </mxCell>
        <mxCell id="IJdeUOe-4886uKfbgkYT-23" value="N" style="edgeLabel;html=1;align=center;verticalAlign=middle;resizable=0;points=[];" vertex="1" connectable="0" parent="IJdeUOe-4886uKfbgkYT-22">
          <mxGeometry x="-0.9058" y="-3" relative="1" as="geometry">
            <mxPoint as="offset" />
          </mxGeometry>
        </mxCell>
      </root>
    </mxGraphModel>
  </diagram>
</mxfile>
